<svg xmlns="http://www.w3.org/2000/svg" shape-rendering="geometricPrecision" text-rendering="geometricPrecision" image-rendering="optimizeQuality" fill-rule="evenodd" clip-rule="evenodd" viewBox="0 0 492 512.324"><path fill="#F33" d="M231.181 0c127.678 0 231.181 103.503 231.181 231.181 0 127.679-103.503 231.181-231.181 231.181C103.503 462.362 0 358.86 0 231.181 0 103.503 103.503 0 231.181 0z"/><path fill="#B22424" d="M437.687 127.171C471.6 167.894 492 220.259 492 277.396c0 129.746-105.183 234.928-234.928 234.928-103.431 0-191.249-66.843-222.619-159.684 40.74 65.851 113.605 109.722 196.728 109.722 127.682 0 231.181-103.499 231.181-231.181 0-37.412-8.899-72.749-24.675-104.01z"/><path fill="#fff" fill-rule="nonzero" d="M268.041 154.5v61.478c0 52.777-73.715 52.777-73.715 0V154.5c0-54.261 73.715-54.261 73.715 0zm-27.707 148.353v36.684c0 12.038-18.296 12.038-18.296 0v-36.684a79.229 79.229 0 01-24.336-6.855 80.602 80.602 0 01-23.111-16.154l-.158-.168a80.524 80.524 0 01-17.291-25.856 79.394 79.394 0 01-6.1-30.568 9.097 9.097 0 012.693-6.457 9.068 9.068 0 016.457-2.689 9.142 9.142 0 016.468 2.683l.178.199a9.102 9.102 0 012.505 6.264c0 8.34 1.673 16.302 4.692 23.565a62.532 62.532 0 0013.476 20.107c5.728 5.718 12.553 10.334 20.107 13.476a61.181 61.181 0 0023.565 4.698c8.34 0 16.307-1.673 23.571-4.698a62.243 62.243 0 0020.096-13.481l.158-.143a62.49 62.49 0 0013.329-19.959 61.266 61.266 0 004.692-23.565 9.129 9.129 0 012.683-6.468 9.147 9.147 0 0112.935 0l.184.204a9.12 9.12 0 012.494 6.264 79.53 79.53 0 01-6.09 30.578 80.558 80.558 0 01-17.434 26.034l-.174.158a80.751 80.751 0 01-22.947 15.986 79.563 79.563 0 01-24.346 6.845z"/></svg>